%TF.GenerationSoftware,KiCad,Pcbnew,7.0.2-0*%
%TF.CreationDate,2023-10-09T21:37:38+01:00*%
%TF.ProjectId,serge-r5-triple-wave-shaper,73657267-652d-4723-952d-747269706c65,r02*%
%TF.SameCoordinates,Original*%
%TF.FileFunction,Soldermask,Top*%
%TF.FilePolarity,Negative*%
%FSLAX46Y46*%
G04 Gerber Fmt 4.6, Leading zero omitted, Abs format (unit mm)*
G04 Created by KiCad (PCBNEW 7.0.2-0) date 2023-10-09 21:37:38*
%MOMM*%
%LPD*%
G01*
G04 APERTURE LIST*
G04 Aperture macros list*
%AMRoundRect*
0 Rectangle with rounded corners*
0 $1 Rounding radius*
0 $2 $3 $4 $5 $6 $7 $8 $9 X,Y pos of 4 corners*
0 Add a 4 corners polygon primitive as box body*
4,1,4,$2,$3,$4,$5,$6,$7,$8,$9,$2,$3,0*
0 Add four circle primitives for the rounded corners*
1,1,$1+$1,$2,$3*
1,1,$1+$1,$4,$5*
1,1,$1+$1,$6,$7*
1,1,$1+$1,$8,$9*
0 Add four rect primitives between the rounded corners*
20,1,$1+$1,$2,$3,$4,$5,0*
20,1,$1+$1,$4,$5,$6,$7,0*
20,1,$1+$1,$6,$7,$8,$9,0*
20,1,$1+$1,$8,$9,$2,$3,0*%
G04 Aperture macros list end*
%ADD10R,2.200000X2.200000*%
%ADD11O,2.200000X2.200000*%
%ADD12C,1.600000*%
%ADD13O,1.600000X1.600000*%
%ADD14C,2.000000*%
%ADD15C,0.500000*%
%ADD16C,6.400000*%
%ADD17R,1.600000X1.600000*%
%ADD18R,1.700000X1.700000*%
%ADD19O,1.700000X1.700000*%
%ADD20R,1.500000X1.000000*%
%ADD21RoundRect,0.250000X0.620000X0.845000X-0.620000X0.845000X-0.620000X-0.845000X0.620000X-0.845000X0*%
%ADD22O,1.740000X2.190000*%
%ADD23C,6.500000*%
%ADD24O,2.200000X2.900000*%
%ADD25R,1.800000X1.800000*%
%ADD26C,1.800000*%
%ADD27R,2.921000X2.921000*%
%ADD28C,2.921000*%
G04 APERTURE END LIST*
D10*
%TO.C,D13*%
X107188000Y-46228000D03*
D11*
X107188000Y-36068000D03*
%TD*%
D12*
%TO.C,R16*%
X79375000Y-37338000D03*
D13*
X79375000Y-47498000D03*
%TD*%
D14*
%TO.C,RV7*%
X102616000Y-107489000D03*
X100116000Y-104989000D03*
X102616000Y-102489000D03*
%TD*%
D12*
%TO.C,R23*%
X83185000Y-107569000D03*
D13*
X93345000Y-107569000D03*
%TD*%
D15*
%TO.C,mouse-bite-2.54mm-slot*%
X73830000Y-50330000D03*
X76030000Y-50330000D03*
X73830000Y-49530000D03*
X76030000Y-49530000D03*
X73830000Y-48730000D03*
X76030000Y-48730000D03*
%TD*%
D12*
%TO.C,R13*%
X96139000Y-68326000D03*
D13*
X96139000Y-58166000D03*
%TD*%
D16*
%TO.C,H1*%
X120396000Y-34544000D03*
%TD*%
D12*
%TO.C,R1*%
X93345000Y-62738000D03*
D13*
X83185000Y-62738000D03*
%TD*%
D17*
%TO.C,D8*%
X98171000Y-158242000D03*
D13*
X105791000Y-158242000D03*
%TD*%
D12*
%TO.C,R10*%
X83185000Y-136525000D03*
D13*
X93345000Y-136525000D03*
%TD*%
D18*
%TO.C,J20*%
X79375000Y-69850000D03*
D19*
X79375000Y-67310000D03*
X79375000Y-64770000D03*
X79375000Y-62230000D03*
X79375000Y-59690000D03*
X79375000Y-57150000D03*
X79375000Y-54610000D03*
X79375000Y-52070000D03*
%TD*%
D12*
%TO.C,R27*%
X79375000Y-76073000D03*
D13*
X79375000Y-86233000D03*
%TD*%
D12*
%TO.C,R21*%
X83185000Y-92837000D03*
D13*
X93345000Y-92837000D03*
%TD*%
D17*
%TO.C,D2*%
X90805000Y-71120000D03*
D13*
X83185000Y-71120000D03*
%TD*%
D18*
%TO.C,J21*%
X28575000Y-69850000D03*
D19*
X28575000Y-67310000D03*
X28575000Y-64770000D03*
X28575000Y-62230000D03*
X28575000Y-59690000D03*
X28575000Y-57150000D03*
X28575000Y-54610000D03*
X28575000Y-52070000D03*
%TD*%
D16*
%TO.C,H3*%
X29464000Y-178816000D03*
%TD*%
D12*
%TO.C,R11*%
X83185000Y-143256000D03*
D13*
X93345000Y-143256000D03*
%TD*%
D12*
%TO.C,C1*%
X100791000Y-56642000D03*
X105791000Y-56642000D03*
%TD*%
%TO.C,R17*%
X93345000Y-130429000D03*
D13*
X83185000Y-130429000D03*
%TD*%
D12*
%TO.C,R26*%
X93345000Y-98933000D03*
D13*
X83185000Y-98933000D03*
%TD*%
D17*
%TO.C,D3*%
X90805000Y-148590000D03*
D13*
X83185000Y-148590000D03*
%TD*%
D12*
%TO.C,R4*%
X83185000Y-56642000D03*
D13*
X93345000Y-56642000D03*
%TD*%
D12*
%TO.C,R8*%
X83185000Y-68326000D03*
D13*
X93345000Y-68326000D03*
%TD*%
D12*
%TO.C,R15*%
X93345000Y-59690000D03*
D13*
X83185000Y-59690000D03*
%TD*%
D12*
%TO.C,C4*%
X98171000Y-154940000D03*
X103171000Y-154940000D03*
%TD*%
D18*
%TO.C,JP3*%
X83947000Y-88900000D03*
D19*
X86487000Y-88900000D03*
X89027000Y-88900000D03*
%TD*%
D17*
%TO.C,D6*%
X98171000Y-81026000D03*
D13*
X105791000Y-81026000D03*
%TD*%
D18*
%TO.C,J11*%
X28575000Y-131445000D03*
D19*
X28575000Y-133985000D03*
X28575000Y-136525000D03*
X28575000Y-139065000D03*
X28575000Y-141605000D03*
X28575000Y-144145000D03*
%TD*%
D12*
%TO.C,C9*%
X98171000Y-116713000D03*
X103171000Y-116713000D03*
%TD*%
%TO.C,C3*%
X98171000Y-77597000D03*
X103171000Y-77597000D03*
%TD*%
D15*
%TO.C,mouse-bite-2.54mm-slot*%
X73830000Y-126530000D03*
X76030000Y-126530000D03*
X73830000Y-125730000D03*
X76030000Y-125730000D03*
X73830000Y-124930000D03*
X76030000Y-124930000D03*
%TD*%
D20*
%TO.C,JP5*%
X49530000Y-135255000D03*
X49530000Y-136555000D03*
%TD*%
D12*
%TO.C,R22*%
X83185000Y-95885000D03*
D13*
X93345000Y-95885000D03*
%TD*%
D15*
%TO.C,mouse-bite-2.54mm-slot*%
X73830000Y-145580000D03*
X76030000Y-145580000D03*
X73830000Y-144780000D03*
X76030000Y-144780000D03*
X73830000Y-143980000D03*
X76030000Y-143980000D03*
%TD*%
D14*
%TO.C,RV5*%
X102703000Y-145502000D03*
X100203000Y-143002000D03*
X102703000Y-140502000D03*
%TD*%
D17*
%TO.C,C10*%
X103124000Y-46228000D03*
D12*
X101124000Y-46228000D03*
%TD*%
%TO.C,R19*%
X93345000Y-113157000D03*
D13*
X83185000Y-113157000D03*
%TD*%
D17*
%TO.C,D7*%
X105029000Y-148590000D03*
D13*
X97409000Y-148590000D03*
%TD*%
D16*
%TO.C,H4*%
X69596000Y-34544000D03*
%TD*%
D12*
%TO.C,R24*%
X95504000Y-113157000D03*
D13*
X105664000Y-113157000D03*
%TD*%
D12*
%TO.C,R9*%
X83185000Y-133477000D03*
D13*
X93345000Y-133477000D03*
%TD*%
D17*
%TO.C,D4*%
X90805000Y-146050000D03*
D13*
X83185000Y-146050000D03*
%TD*%
D17*
%TO.C,C11*%
X89027000Y-82169000D03*
D12*
X87027000Y-82169000D03*
%TD*%
D17*
%TO.C,D10*%
X90805000Y-104775000D03*
D13*
X83185000Y-104775000D03*
%TD*%
D18*
%TO.C,J17*%
X28575000Y-90805000D03*
D19*
X28575000Y-93345000D03*
X28575000Y-95885000D03*
X28575000Y-98425000D03*
X28575000Y-100965000D03*
X28575000Y-103505000D03*
%TD*%
D18*
%TO.C,JP2*%
X83947000Y-127000000D03*
D19*
X86487000Y-127000000D03*
X89027000Y-127000000D03*
%TD*%
D14*
%TO.C,RV4*%
X102449000Y-67778000D03*
X99949000Y-65278000D03*
X102449000Y-62778000D03*
%TD*%
D12*
%TO.C,R18*%
X79375000Y-116840000D03*
D13*
X79375000Y-127000000D03*
%TD*%
D12*
%TO.C,R7*%
X95631000Y-73914000D03*
D13*
X105791000Y-73914000D03*
%TD*%
D17*
%TO.C,U1*%
X110490000Y-90170000D03*
D13*
X110490000Y-92710000D03*
X110490000Y-95250000D03*
X110490000Y-97790000D03*
X110490000Y-100330000D03*
X110490000Y-102870000D03*
X110490000Y-105410000D03*
X118110000Y-105410000D03*
X118110000Y-102870000D03*
X118110000Y-100330000D03*
X118110000Y-97790000D03*
X118110000Y-95250000D03*
X118110000Y-92710000D03*
X118110000Y-90170000D03*
%TD*%
D12*
%TO.C,R3*%
X83185000Y-53594000D03*
D13*
X93345000Y-53594000D03*
%TD*%
D12*
%TO.C,R2*%
X93345000Y-73914000D03*
D13*
X83185000Y-73914000D03*
%TD*%
D15*
%TO.C,mouse-bite-2.54mm-slot*%
X73830000Y-107480000D03*
X76030000Y-107480000D03*
X73830000Y-106680000D03*
X76030000Y-106680000D03*
X73830000Y-105880000D03*
X76030000Y-105880000D03*
%TD*%
D17*
%TO.C,C5*%
X89027000Y-43053000D03*
D12*
X87027000Y-43053000D03*
%TD*%
D17*
%TO.C,D1*%
X90805000Y-65532000D03*
D13*
X83185000Y-65532000D03*
%TD*%
D12*
%TO.C,R14*%
X96139000Y-140589000D03*
D13*
X96139000Y-130429000D03*
%TD*%
D12*
%TO.C,C8*%
X121920000Y-90170000D03*
X121920000Y-85170000D03*
%TD*%
%TO.C,C7*%
X100791000Y-95885000D03*
X105791000Y-95885000D03*
%TD*%
%TO.C,R25*%
X96139000Y-107950000D03*
D13*
X96139000Y-97790000D03*
%TD*%
D18*
%TO.C,JP1*%
X83947000Y-49657000D03*
D19*
X86487000Y-49657000D03*
X89027000Y-49657000D03*
%TD*%
D12*
%TO.C,R12*%
X95631000Y-151384000D03*
D13*
X105791000Y-151384000D03*
%TD*%
D15*
%TO.C,mouse-bite-2.54mm-slot*%
X73830000Y-164630000D03*
X76030000Y-164630000D03*
X73830000Y-163830000D03*
X76030000Y-163830000D03*
X73830000Y-163030000D03*
X76030000Y-163030000D03*
%TD*%
D17*
%TO.C,D12*%
X98171000Y-120015000D03*
D13*
X105791000Y-120015000D03*
%TD*%
D16*
%TO.C,H2*%
X80264000Y-178816000D03*
%TD*%
D17*
%TO.C,D5*%
X105791000Y-71120000D03*
D13*
X98171000Y-71120000D03*
%TD*%
D15*
%TO.C,mouse-bite-2.54mm-slot*%
X73830000Y-69380000D03*
X76030000Y-69380000D03*
X73830000Y-68580000D03*
X76030000Y-68580000D03*
X73830000Y-67780000D03*
X76030000Y-67780000D03*
%TD*%
D21*
%TO.C,J9*%
X102997000Y-36068000D03*
D22*
X100457000Y-36068000D03*
X97917000Y-36068000D03*
X95377000Y-36068000D03*
%TD*%
D12*
%TO.C,R5*%
X93345000Y-151384000D03*
D13*
X83185000Y-151384000D03*
%TD*%
D17*
%TO.C,C6*%
X89027000Y-120396000D03*
D12*
X87027000Y-120396000D03*
%TD*%
%TO.C,C2*%
X98345000Y-126873000D03*
X93345000Y-126873000D03*
%TD*%
%TO.C,R20*%
X93345000Y-101981000D03*
D13*
X83185000Y-101981000D03*
%TD*%
D15*
%TO.C,mouse-bite-2.54mm-slot*%
X73830000Y-88430000D03*
X76030000Y-88430000D03*
X73830000Y-87630000D03*
X76030000Y-87630000D03*
X73830000Y-86830000D03*
X76030000Y-86830000D03*
%TD*%
D20*
%TO.C,JP4*%
X49530000Y-97155000D03*
X49530000Y-98455000D03*
%TD*%
D17*
%TO.C,D11*%
X105791000Y-110363000D03*
D13*
X98171000Y-110363000D03*
%TD*%
D12*
%TO.C,R6*%
X93345000Y-140208000D03*
D13*
X83185000Y-140208000D03*
%TD*%
D17*
%TO.C,D9*%
X90805000Y-110363000D03*
D13*
X83185000Y-110363000D03*
%TD*%
D23*
%TO.C,J6*%
X36830000Y-173355000D03*
D12*
X33782000Y-170307000D03*
%TD*%
D18*
%TO.C,J12*%
X79375000Y-131445000D03*
D19*
X79375000Y-133985000D03*
X79375000Y-136525000D03*
X79375000Y-139065000D03*
X79375000Y-141605000D03*
X79375000Y-144145000D03*
%TD*%
D18*
%TO.C,J18*%
X79375000Y-90805000D03*
D19*
X79375000Y-93345000D03*
X79375000Y-95885000D03*
X79375000Y-98425000D03*
X79375000Y-100965000D03*
X79375000Y-103505000D03*
%TD*%
D24*
%TO.C,RV6*%
X57430000Y-116205000D03*
X67030000Y-116205000D03*
D25*
X59730000Y-108705000D03*
D26*
X62230000Y-108705000D03*
X64730000Y-108705000D03*
%TD*%
D23*
%TO.C,J16*%
X62230000Y-97155000D03*
D12*
X65278000Y-100203000D03*
%TD*%
D23*
%TO.C,J3*%
X36830000Y-59055000D03*
D12*
X33782000Y-62103000D03*
%TD*%
D27*
%TO.C,SW2*%
X49530000Y-122301000D03*
D28*
X49530000Y-127000000D03*
X49530000Y-131699000D03*
%TD*%
D27*
%TO.C,SW3*%
X49530000Y-84201000D03*
D28*
X49530000Y-88900000D03*
X49530000Y-93599000D03*
%TD*%
D23*
%TO.C,J4*%
X62230000Y-40005000D03*
D12*
X65278000Y-43053000D03*
%TD*%
D23*
%TO.C,J15*%
X36830000Y-116205000D03*
D12*
X33782000Y-113157000D03*
%TD*%
D23*
%TO.C,J1*%
X36830000Y-40005000D03*
D12*
X33782000Y-43053000D03*
%TD*%
D23*
%TO.C,J5*%
X36830000Y-154305000D03*
D12*
X33782000Y-151257000D03*
%TD*%
D23*
%TO.C,J13*%
X36830000Y-97155000D03*
D12*
X33782000Y-94107000D03*
%TD*%
D23*
%TO.C,J7*%
X62230000Y-173355000D03*
D12*
X59182000Y-170307000D03*
%TD*%
D24*
%TO.C,RV2*%
X57430000Y-78105000D03*
X67030000Y-78105000D03*
D25*
X59730000Y-70605000D03*
D26*
X62230000Y-70605000D03*
X64730000Y-70605000D03*
%TD*%
D27*
%TO.C,SW1*%
X49530000Y-65151000D03*
D28*
X49530000Y-69850000D03*
X49530000Y-74549000D03*
%TD*%
D23*
%TO.C,J14*%
X36830000Y-135255000D03*
D12*
X33782000Y-132207000D03*
%TD*%
D23*
%TO.C,J8*%
X62230000Y-135255000D03*
D12*
X65278000Y-138303000D03*
%TD*%
D24*
%TO.C,RV1*%
X57430000Y-59055000D03*
X67030000Y-59055000D03*
D25*
X59730000Y-51555000D03*
D26*
X62230000Y-51555000D03*
X64730000Y-51555000D03*
%TD*%
D24*
%TO.C,RV3*%
X57430000Y-154305000D03*
X67030000Y-154305000D03*
D25*
X59730000Y-146805000D03*
D26*
X62230000Y-146805000D03*
X64730000Y-146805000D03*
%TD*%
D23*
%TO.C,J2*%
X36830000Y-78105000D03*
D12*
X33782000Y-75057000D03*
%TD*%
M02*
