M48
; DRILL file {KiCad 7.0.2-0} date 2023 October 09, Monday 21:37:40
; FORMAT={-:-/ absolute / inch / decimal}
; #@! TF.CreationDate,2023-10-09T21:37:40+01:00
; #@! TF.GenerationSoftware,Kicad,Pcbnew,7.0.2-0
; #@! TF.FileFunction,Plated,1,2,PTH
FMAT,2
INCH
; #@! TA.AperFunction,Plated,PTH,ViaDrill
T1C0.0150
; #@! TA.AperFunction,Plated,PTH,ComponentDrill
T2C0.0315
; #@! TA.AperFunction,Plated,PTH,ComponentDrill
T3C0.0394
; #@! TA.AperFunction,Plated,PTH,ComponentDrill
T4C0.0433
; #@! TA.AperFunction,Plated,PTH,ComponentDrill
T5C0.0469
; #@! TA.AperFunction,Plated,PTH,ComponentDrill
T6C0.0750
; #@! TA.AperFunction,Plated,PTH,ComponentDrill
T7C0.1260
; #@! TA.AperFunction,Plated,PTH,ComponentDrill
T8C0.2008
%
G90
G05
T1
X4.055Y-5.055
X4.43Y-3.72
X4.55Y-3.85
T2
X1.33Y-1.695
X1.33Y-2.445
X1.33Y-2.955
X1.33Y-3.705
X1.33Y-4.455
X1.33Y-5.205
X1.33Y-5.955
X1.33Y-6.705
X2.33Y-6.705
X2.57Y-1.695
X2.57Y-3.945
X2.57Y-5.445
X3.125Y-1.47
X3.125Y-1.87
X3.125Y-2.995
X3.125Y-3.395
X3.125Y-4.6
X3.125Y-5.0
X3.275Y-2.11
X3.275Y-2.23
X3.275Y-2.35
X3.275Y-2.47
X3.275Y-2.58
X3.275Y-2.69
X3.275Y-2.8
X3.275Y-2.91
X3.275Y-3.655
X3.275Y-3.775
X3.275Y-3.895
X3.275Y-4.015
X3.275Y-4.125
X3.275Y-4.235
X3.275Y-4.345
X3.275Y-4.455
X3.275Y-5.135
X3.275Y-5.255
X3.275Y-5.375
X3.275Y-5.52
X3.275Y-5.64
X3.275Y-5.75
X3.275Y-5.85
X3.275Y-5.96
X3.4263Y-1.695
X3.4263Y-3.235
X3.4263Y-4.74
X3.505Y-1.695
X3.505Y-3.235
X3.505Y-4.74
X3.575Y-2.58
X3.575Y-2.8
X3.575Y-4.125
X3.575Y-4.345
X3.575Y-5.75
X3.575Y-5.85
X3.675Y-2.11
X3.675Y-2.23
X3.675Y-2.35
X3.675Y-2.47
X3.675Y-2.69
X3.675Y-2.91
X3.675Y-3.655
X3.675Y-3.775
X3.675Y-3.895
X3.675Y-4.015
X3.675Y-4.235
X3.675Y-4.455
X3.675Y-4.995
X3.675Y-5.135
X3.675Y-5.255
X3.675Y-5.375
X3.675Y-5.52
X3.675Y-5.64
X3.675Y-5.96
X3.76Y-4.455
X3.765Y-2.91
X3.765Y-5.96
X3.785Y-2.29
X3.785Y-2.69
X3.785Y-3.85
X3.785Y-4.25
X3.785Y-5.135
X3.785Y-5.535
X3.835Y-5.85
X3.865Y-2.8
X3.865Y-3.055
X3.865Y-3.19
X3.865Y-4.345
X3.865Y-4.595
X3.865Y-4.725
X3.865Y-6.1
X3.865Y-6.23
X3.8719Y-4.995
X3.9681Y-2.23
X3.9681Y-3.775
X3.9813Y-1.82
X4.06Y-1.82
X4.0619Y-3.055
X4.0619Y-4.595
X4.0619Y-6.1
X4.135Y-5.85
X4.16Y-4.455
X4.165Y-2.23
X4.165Y-2.8
X4.165Y-2.91
X4.165Y-3.19
X4.165Y-3.775
X4.165Y-4.345
X4.165Y-4.725
X4.165Y-5.96
X4.165Y-6.23
X4.35Y-3.55
X4.35Y-3.65
X4.35Y-3.75
X4.35Y-3.85
X4.35Y-3.95
X4.35Y-4.05
X4.35Y-4.15
X4.65Y-3.55
X4.65Y-3.65
X4.65Y-3.75
X4.65Y-3.85
X4.65Y-3.95
X4.65Y-4.05
X4.65Y-4.15
X4.8Y-3.3531
X4.8Y-3.55
T3
X1.125Y-2.05
X1.125Y-2.15
X1.125Y-2.25
X1.125Y-2.35
X1.125Y-2.45
X1.125Y-2.55
X1.125Y-2.65
X1.125Y-2.75
X1.125Y-3.575
X1.125Y-3.675
X1.125Y-3.775
X1.125Y-3.875
X1.125Y-3.975
X1.125Y-4.075
X1.125Y-5.175
X1.125Y-5.275
X1.125Y-5.375
X1.125Y-5.475
X1.125Y-5.575
X1.125Y-5.675
X2.3516Y-2.0297
X2.3516Y-2.7797
X2.3516Y-4.2797
X2.3516Y-5.7797
X2.45Y-2.0297
X2.45Y-2.7797
X2.45Y-4.2797
X2.45Y-5.7797
X2.5484Y-2.0297
X2.5484Y-2.7797
X2.5484Y-4.2797
X2.5484Y-5.7797
X3.125Y-2.05
X3.125Y-2.15
X3.125Y-2.25
X3.125Y-2.35
X3.125Y-2.45
X3.125Y-2.55
X3.125Y-2.65
X3.125Y-2.75
X3.125Y-3.575
X3.125Y-3.675
X3.125Y-3.775
X3.125Y-3.875
X3.125Y-3.975
X3.125Y-4.075
X3.125Y-5.175
X3.125Y-5.275
X3.125Y-5.375
X3.125Y-5.475
X3.125Y-5.575
X3.125Y-5.675
X3.305Y-1.955
X3.305Y-3.5
X3.305Y-5.0
X3.405Y-1.955
X3.405Y-3.5
X3.405Y-5.0
X3.505Y-1.955
X3.505Y-3.5
X3.505Y-5.0
T4
X3.935Y-2.57
X3.9416Y-4.1334
X3.945Y-5.63
X4.0334Y-2.4716
X4.0334Y-2.6684
X4.04Y-4.035
X4.04Y-4.2319
X4.0434Y-5.5316
X4.0434Y-5.7284
X4.22Y-1.42
X4.22Y-1.82
T5
X3.755Y-1.42
X3.855Y-1.42
X3.955Y-1.42
X4.055Y-1.42
T6
X1.95Y-2.565
X1.95Y-2.75
X1.95Y-2.935
X1.95Y-3.315
X1.95Y-3.5
X1.95Y-3.685
X1.95Y-4.815
X1.95Y-5.0
X1.95Y-5.185
T7
X1.16Y-7.04
X2.74Y-1.36
X3.16Y-7.04
X4.74Y-1.36
T8
X1.45Y-1.575
X1.45Y-2.325
X1.45Y-3.075
X1.45Y-3.825
X1.45Y-4.575
X1.45Y-5.325
X1.45Y-6.075
X1.45Y-6.825
X2.45Y-1.575
X2.45Y-3.825
X2.45Y-5.325
X2.45Y-6.825
T4
G00X2.261Y-2.3388
M15
G01X2.261Y-2.3112
M16
G05
G00X2.261Y-3.0888
M15
G01X2.261Y-3.0612
M16
G05
G00X2.261Y-4.5888
M15
G01X2.261Y-4.5612
M16
G05
G00X2.261Y-6.0888
M15
G01X2.261Y-6.0612
M16
G05
G00X2.639Y-2.3388
M15
G01X2.639Y-2.3112
M16
G05
G00X2.639Y-3.0888
M15
G01X2.639Y-3.0612
M16
G05
G00X2.639Y-4.5888
M15
G01X2.639Y-4.5612
M16
G05
G00X2.639Y-6.0888
M15
G01X2.639Y-6.0612
M16
G05
T0
M30
