%TF.GenerationSoftware,KiCad,Pcbnew,7.0.2-0*%
%TF.CreationDate,2023-10-09T21:37:38+01:00*%
%TF.ProjectId,serge-r5-triple-wave-shaper,73657267-652d-4723-952d-747269706c65,r02*%
%TF.SameCoordinates,Original*%
%TF.FileFunction,Legend,Bot*%
%TF.FilePolarity,Positive*%
%FSLAX46Y46*%
G04 Gerber Fmt 4.6, Leading zero omitted, Abs format (unit mm)*
G04 Created by KiCad (PCBNEW 7.0.2-0) date 2023-10-09 21:37:38*
%MOMM*%
%LPD*%
G01*
G04 APERTURE LIST*
%ADD10C,0.150000*%
%ADD11C,0.120000*%
G04 APERTURE END LIST*
D10*
%TO.C,J9*%
X103949380Y-39721619D02*
X103616047Y-40721619D01*
X103616047Y-40721619D02*
X103282714Y-39721619D01*
X102949380Y-40340666D02*
X102187476Y-40340666D01*
X102568428Y-40721619D02*
X102568428Y-39959714D01*
X96329380Y-39721619D02*
X95996047Y-40721619D01*
X95996047Y-40721619D02*
X95662714Y-39721619D01*
X95329380Y-40340666D02*
X94567476Y-40340666D01*
%TO.C,J6*%
X37163333Y-167991619D02*
X37163333Y-168705904D01*
X37163333Y-168705904D02*
X37210952Y-168848761D01*
X37210952Y-168848761D02*
X37306190Y-168944000D01*
X37306190Y-168944000D02*
X37449047Y-168991619D01*
X37449047Y-168991619D02*
X37544285Y-168991619D01*
X36258571Y-167991619D02*
X36449047Y-167991619D01*
X36449047Y-167991619D02*
X36544285Y-168039238D01*
X36544285Y-168039238D02*
X36591904Y-168086857D01*
X36591904Y-168086857D02*
X36687142Y-168229714D01*
X36687142Y-168229714D02*
X36734761Y-168420190D01*
X36734761Y-168420190D02*
X36734761Y-168801142D01*
X36734761Y-168801142D02*
X36687142Y-168896380D01*
X36687142Y-168896380D02*
X36639523Y-168944000D01*
X36639523Y-168944000D02*
X36544285Y-168991619D01*
X36544285Y-168991619D02*
X36353809Y-168991619D01*
X36353809Y-168991619D02*
X36258571Y-168944000D01*
X36258571Y-168944000D02*
X36210952Y-168896380D01*
X36210952Y-168896380D02*
X36163333Y-168801142D01*
X36163333Y-168801142D02*
X36163333Y-168563047D01*
X36163333Y-168563047D02*
X36210952Y-168467809D01*
X36210952Y-168467809D02*
X36258571Y-168420190D01*
X36258571Y-168420190D02*
X36353809Y-168372571D01*
X36353809Y-168372571D02*
X36544285Y-168372571D01*
X36544285Y-168372571D02*
X36639523Y-168420190D01*
X36639523Y-168420190D02*
X36687142Y-168467809D01*
X36687142Y-168467809D02*
X36734761Y-168563047D01*
%TO.C,J12*%
X80184523Y-128577619D02*
X80184523Y-129291904D01*
X80184523Y-129291904D02*
X80232142Y-129434761D01*
X80232142Y-129434761D02*
X80327380Y-129530000D01*
X80327380Y-129530000D02*
X80470237Y-129577619D01*
X80470237Y-129577619D02*
X80565475Y-129577619D01*
X79184523Y-129577619D02*
X79755951Y-129577619D01*
X79470237Y-129577619D02*
X79470237Y-128577619D01*
X79470237Y-128577619D02*
X79565475Y-128720476D01*
X79565475Y-128720476D02*
X79660713Y-128815714D01*
X79660713Y-128815714D02*
X79755951Y-128863333D01*
X78803570Y-128672857D02*
X78755951Y-128625238D01*
X78755951Y-128625238D02*
X78660713Y-128577619D01*
X78660713Y-128577619D02*
X78422618Y-128577619D01*
X78422618Y-128577619D02*
X78327380Y-128625238D01*
X78327380Y-128625238D02*
X78279761Y-128672857D01*
X78279761Y-128672857D02*
X78232142Y-128768095D01*
X78232142Y-128768095D02*
X78232142Y-128863333D01*
X78232142Y-128863333D02*
X78279761Y-129006190D01*
X78279761Y-129006190D02*
X78851189Y-129577619D01*
X78851189Y-129577619D02*
X78232142Y-129577619D01*
%TO.C,J18*%
X80184523Y-87937619D02*
X80184523Y-88651904D01*
X80184523Y-88651904D02*
X80232142Y-88794761D01*
X80232142Y-88794761D02*
X80327380Y-88890000D01*
X80327380Y-88890000D02*
X80470237Y-88937619D01*
X80470237Y-88937619D02*
X80565475Y-88937619D01*
X79184523Y-88937619D02*
X79755951Y-88937619D01*
X79470237Y-88937619D02*
X79470237Y-87937619D01*
X79470237Y-87937619D02*
X79565475Y-88080476D01*
X79565475Y-88080476D02*
X79660713Y-88175714D01*
X79660713Y-88175714D02*
X79755951Y-88223333D01*
X78613094Y-88366190D02*
X78708332Y-88318571D01*
X78708332Y-88318571D02*
X78755951Y-88270952D01*
X78755951Y-88270952D02*
X78803570Y-88175714D01*
X78803570Y-88175714D02*
X78803570Y-88128095D01*
X78803570Y-88128095D02*
X78755951Y-88032857D01*
X78755951Y-88032857D02*
X78708332Y-87985238D01*
X78708332Y-87985238D02*
X78613094Y-87937619D01*
X78613094Y-87937619D02*
X78422618Y-87937619D01*
X78422618Y-87937619D02*
X78327380Y-87985238D01*
X78327380Y-87985238D02*
X78279761Y-88032857D01*
X78279761Y-88032857D02*
X78232142Y-88128095D01*
X78232142Y-88128095D02*
X78232142Y-88175714D01*
X78232142Y-88175714D02*
X78279761Y-88270952D01*
X78279761Y-88270952D02*
X78327380Y-88318571D01*
X78327380Y-88318571D02*
X78422618Y-88366190D01*
X78422618Y-88366190D02*
X78613094Y-88366190D01*
X78613094Y-88366190D02*
X78708332Y-88413809D01*
X78708332Y-88413809D02*
X78755951Y-88461428D01*
X78755951Y-88461428D02*
X78803570Y-88556666D01*
X78803570Y-88556666D02*
X78803570Y-88747142D01*
X78803570Y-88747142D02*
X78755951Y-88842380D01*
X78755951Y-88842380D02*
X78708332Y-88890000D01*
X78708332Y-88890000D02*
X78613094Y-88937619D01*
X78613094Y-88937619D02*
X78422618Y-88937619D01*
X78422618Y-88937619D02*
X78327380Y-88890000D01*
X78327380Y-88890000D02*
X78279761Y-88842380D01*
X78279761Y-88842380D02*
X78232142Y-88747142D01*
X78232142Y-88747142D02*
X78232142Y-88556666D01*
X78232142Y-88556666D02*
X78279761Y-88461428D01*
X78279761Y-88461428D02*
X78327380Y-88413809D01*
X78327380Y-88413809D02*
X78422618Y-88366190D01*
%TO.C,RV6*%
X67270238Y-122382619D02*
X67603571Y-121906428D01*
X67841666Y-122382619D02*
X67841666Y-121382619D01*
X67841666Y-121382619D02*
X67460714Y-121382619D01*
X67460714Y-121382619D02*
X67365476Y-121430238D01*
X67365476Y-121430238D02*
X67317857Y-121477857D01*
X67317857Y-121477857D02*
X67270238Y-121573095D01*
X67270238Y-121573095D02*
X67270238Y-121715952D01*
X67270238Y-121715952D02*
X67317857Y-121811190D01*
X67317857Y-121811190D02*
X67365476Y-121858809D01*
X67365476Y-121858809D02*
X67460714Y-121906428D01*
X67460714Y-121906428D02*
X67841666Y-121906428D01*
X66984523Y-121382619D02*
X66651190Y-122382619D01*
X66651190Y-122382619D02*
X66317857Y-121382619D01*
X65555952Y-121382619D02*
X65746428Y-121382619D01*
X65746428Y-121382619D02*
X65841666Y-121430238D01*
X65841666Y-121430238D02*
X65889285Y-121477857D01*
X65889285Y-121477857D02*
X65984523Y-121620714D01*
X65984523Y-121620714D02*
X66032142Y-121811190D01*
X66032142Y-121811190D02*
X66032142Y-122192142D01*
X66032142Y-122192142D02*
X65984523Y-122287380D01*
X65984523Y-122287380D02*
X65936904Y-122335000D01*
X65936904Y-122335000D02*
X65841666Y-122382619D01*
X65841666Y-122382619D02*
X65651190Y-122382619D01*
X65651190Y-122382619D02*
X65555952Y-122335000D01*
X65555952Y-122335000D02*
X65508333Y-122287380D01*
X65508333Y-122287380D02*
X65460714Y-122192142D01*
X65460714Y-122192142D02*
X65460714Y-121954047D01*
X65460714Y-121954047D02*
X65508333Y-121858809D01*
X65508333Y-121858809D02*
X65555952Y-121811190D01*
X65555952Y-121811190D02*
X65651190Y-121763571D01*
X65651190Y-121763571D02*
X65841666Y-121763571D01*
X65841666Y-121763571D02*
X65936904Y-121811190D01*
X65936904Y-121811190D02*
X65984523Y-121858809D01*
X65984523Y-121858809D02*
X66032142Y-121954047D01*
%TO.C,J16*%
X63039523Y-101443619D02*
X63039523Y-102157904D01*
X63039523Y-102157904D02*
X63087142Y-102300761D01*
X63087142Y-102300761D02*
X63182380Y-102396000D01*
X63182380Y-102396000D02*
X63325237Y-102443619D01*
X63325237Y-102443619D02*
X63420475Y-102443619D01*
X62039523Y-102443619D02*
X62610951Y-102443619D01*
X62325237Y-102443619D02*
X62325237Y-101443619D01*
X62325237Y-101443619D02*
X62420475Y-101586476D01*
X62420475Y-101586476D02*
X62515713Y-101681714D01*
X62515713Y-101681714D02*
X62610951Y-101729333D01*
X61182380Y-101443619D02*
X61372856Y-101443619D01*
X61372856Y-101443619D02*
X61468094Y-101491238D01*
X61468094Y-101491238D02*
X61515713Y-101538857D01*
X61515713Y-101538857D02*
X61610951Y-101681714D01*
X61610951Y-101681714D02*
X61658570Y-101872190D01*
X61658570Y-101872190D02*
X61658570Y-102253142D01*
X61658570Y-102253142D02*
X61610951Y-102348380D01*
X61610951Y-102348380D02*
X61563332Y-102396000D01*
X61563332Y-102396000D02*
X61468094Y-102443619D01*
X61468094Y-102443619D02*
X61277618Y-102443619D01*
X61277618Y-102443619D02*
X61182380Y-102396000D01*
X61182380Y-102396000D02*
X61134761Y-102348380D01*
X61134761Y-102348380D02*
X61087142Y-102253142D01*
X61087142Y-102253142D02*
X61087142Y-102015047D01*
X61087142Y-102015047D02*
X61134761Y-101919809D01*
X61134761Y-101919809D02*
X61182380Y-101872190D01*
X61182380Y-101872190D02*
X61277618Y-101824571D01*
X61277618Y-101824571D02*
X61468094Y-101824571D01*
X61468094Y-101824571D02*
X61563332Y-101872190D01*
X61563332Y-101872190D02*
X61610951Y-101919809D01*
X61610951Y-101919809D02*
X61658570Y-102015047D01*
%TO.C,J3*%
X31466619Y-58721666D02*
X32180904Y-58721666D01*
X32180904Y-58721666D02*
X32323761Y-58674047D01*
X32323761Y-58674047D02*
X32419000Y-58578809D01*
X32419000Y-58578809D02*
X32466619Y-58435952D01*
X32466619Y-58435952D02*
X32466619Y-58340714D01*
X31466619Y-59102619D02*
X31466619Y-59721666D01*
X31466619Y-59721666D02*
X31847571Y-59388333D01*
X31847571Y-59388333D02*
X31847571Y-59531190D01*
X31847571Y-59531190D02*
X31895190Y-59626428D01*
X31895190Y-59626428D02*
X31942809Y-59674047D01*
X31942809Y-59674047D02*
X32038047Y-59721666D01*
X32038047Y-59721666D02*
X32276142Y-59721666D01*
X32276142Y-59721666D02*
X32371380Y-59674047D01*
X32371380Y-59674047D02*
X32419000Y-59626428D01*
X32419000Y-59626428D02*
X32466619Y-59531190D01*
X32466619Y-59531190D02*
X32466619Y-59245476D01*
X32466619Y-59245476D02*
X32419000Y-59150238D01*
X32419000Y-59150238D02*
X32371380Y-59102619D01*
%TO.C,SW2*%
X45627000Y-125666667D02*
X45674619Y-125809524D01*
X45674619Y-125809524D02*
X45674619Y-126047619D01*
X45674619Y-126047619D02*
X45627000Y-126142857D01*
X45627000Y-126142857D02*
X45579380Y-126190476D01*
X45579380Y-126190476D02*
X45484142Y-126238095D01*
X45484142Y-126238095D02*
X45388904Y-126238095D01*
X45388904Y-126238095D02*
X45293666Y-126190476D01*
X45293666Y-126190476D02*
X45246047Y-126142857D01*
X45246047Y-126142857D02*
X45198428Y-126047619D01*
X45198428Y-126047619D02*
X45150809Y-125857143D01*
X45150809Y-125857143D02*
X45103190Y-125761905D01*
X45103190Y-125761905D02*
X45055571Y-125714286D01*
X45055571Y-125714286D02*
X44960333Y-125666667D01*
X44960333Y-125666667D02*
X44865095Y-125666667D01*
X44865095Y-125666667D02*
X44769857Y-125714286D01*
X44769857Y-125714286D02*
X44722238Y-125761905D01*
X44722238Y-125761905D02*
X44674619Y-125857143D01*
X44674619Y-125857143D02*
X44674619Y-126095238D01*
X44674619Y-126095238D02*
X44722238Y-126238095D01*
X44674619Y-126571429D02*
X45674619Y-126809524D01*
X45674619Y-126809524D02*
X44960333Y-127000000D01*
X44960333Y-127000000D02*
X45674619Y-127190476D01*
X45674619Y-127190476D02*
X44674619Y-127428572D01*
X44769857Y-127761905D02*
X44722238Y-127809524D01*
X44722238Y-127809524D02*
X44674619Y-127904762D01*
X44674619Y-127904762D02*
X44674619Y-128142857D01*
X44674619Y-128142857D02*
X44722238Y-128238095D01*
X44722238Y-128238095D02*
X44769857Y-128285714D01*
X44769857Y-128285714D02*
X44865095Y-128333333D01*
X44865095Y-128333333D02*
X44960333Y-128333333D01*
X44960333Y-128333333D02*
X45103190Y-128285714D01*
X45103190Y-128285714D02*
X45674619Y-127714286D01*
X45674619Y-127714286D02*
X45674619Y-128333333D01*
%TO.C,SW3*%
X45627000Y-87566667D02*
X45674619Y-87709524D01*
X45674619Y-87709524D02*
X45674619Y-87947619D01*
X45674619Y-87947619D02*
X45627000Y-88042857D01*
X45627000Y-88042857D02*
X45579380Y-88090476D01*
X45579380Y-88090476D02*
X45484142Y-88138095D01*
X45484142Y-88138095D02*
X45388904Y-88138095D01*
X45388904Y-88138095D02*
X45293666Y-88090476D01*
X45293666Y-88090476D02*
X45246047Y-88042857D01*
X45246047Y-88042857D02*
X45198428Y-87947619D01*
X45198428Y-87947619D02*
X45150809Y-87757143D01*
X45150809Y-87757143D02*
X45103190Y-87661905D01*
X45103190Y-87661905D02*
X45055571Y-87614286D01*
X45055571Y-87614286D02*
X44960333Y-87566667D01*
X44960333Y-87566667D02*
X44865095Y-87566667D01*
X44865095Y-87566667D02*
X44769857Y-87614286D01*
X44769857Y-87614286D02*
X44722238Y-87661905D01*
X44722238Y-87661905D02*
X44674619Y-87757143D01*
X44674619Y-87757143D02*
X44674619Y-87995238D01*
X44674619Y-87995238D02*
X44722238Y-88138095D01*
X44674619Y-88471429D02*
X45674619Y-88709524D01*
X45674619Y-88709524D02*
X44960333Y-88900000D01*
X44960333Y-88900000D02*
X45674619Y-89090476D01*
X45674619Y-89090476D02*
X44674619Y-89328572D01*
X44674619Y-89614286D02*
X44674619Y-90233333D01*
X44674619Y-90233333D02*
X45055571Y-89900000D01*
X45055571Y-89900000D02*
X45055571Y-90042857D01*
X45055571Y-90042857D02*
X45103190Y-90138095D01*
X45103190Y-90138095D02*
X45150809Y-90185714D01*
X45150809Y-90185714D02*
X45246047Y-90233333D01*
X45246047Y-90233333D02*
X45484142Y-90233333D01*
X45484142Y-90233333D02*
X45579380Y-90185714D01*
X45579380Y-90185714D02*
X45627000Y-90138095D01*
X45627000Y-90138095D02*
X45674619Y-90042857D01*
X45674619Y-90042857D02*
X45674619Y-89757143D01*
X45674619Y-89757143D02*
X45627000Y-89661905D01*
X45627000Y-89661905D02*
X45579380Y-89614286D01*
%TO.C,J4*%
X62563333Y-44293619D02*
X62563333Y-45007904D01*
X62563333Y-45007904D02*
X62610952Y-45150761D01*
X62610952Y-45150761D02*
X62706190Y-45246000D01*
X62706190Y-45246000D02*
X62849047Y-45293619D01*
X62849047Y-45293619D02*
X62944285Y-45293619D01*
X61658571Y-44626952D02*
X61658571Y-45293619D01*
X61896666Y-44246000D02*
X62134761Y-44960285D01*
X62134761Y-44960285D02*
X61515714Y-44960285D01*
%TO.C,J15*%
X37639523Y-110841619D02*
X37639523Y-111555904D01*
X37639523Y-111555904D02*
X37687142Y-111698761D01*
X37687142Y-111698761D02*
X37782380Y-111794000D01*
X37782380Y-111794000D02*
X37925237Y-111841619D01*
X37925237Y-111841619D02*
X38020475Y-111841619D01*
X36639523Y-111841619D02*
X37210951Y-111841619D01*
X36925237Y-111841619D02*
X36925237Y-110841619D01*
X36925237Y-110841619D02*
X37020475Y-110984476D01*
X37020475Y-110984476D02*
X37115713Y-111079714D01*
X37115713Y-111079714D02*
X37210951Y-111127333D01*
X35734761Y-110841619D02*
X36210951Y-110841619D01*
X36210951Y-110841619D02*
X36258570Y-111317809D01*
X36258570Y-111317809D02*
X36210951Y-111270190D01*
X36210951Y-111270190D02*
X36115713Y-111222571D01*
X36115713Y-111222571D02*
X35877618Y-111222571D01*
X35877618Y-111222571D02*
X35782380Y-111270190D01*
X35782380Y-111270190D02*
X35734761Y-111317809D01*
X35734761Y-111317809D02*
X35687142Y-111413047D01*
X35687142Y-111413047D02*
X35687142Y-111651142D01*
X35687142Y-111651142D02*
X35734761Y-111746380D01*
X35734761Y-111746380D02*
X35782380Y-111794000D01*
X35782380Y-111794000D02*
X35877618Y-111841619D01*
X35877618Y-111841619D02*
X36115713Y-111841619D01*
X36115713Y-111841619D02*
X36210951Y-111794000D01*
X36210951Y-111794000D02*
X36258570Y-111746380D01*
%TO.C,J1*%
X31466619Y-39671666D02*
X32180904Y-39671666D01*
X32180904Y-39671666D02*
X32323761Y-39624047D01*
X32323761Y-39624047D02*
X32419000Y-39528809D01*
X32419000Y-39528809D02*
X32466619Y-39385952D01*
X32466619Y-39385952D02*
X32466619Y-39290714D01*
X32466619Y-40671666D02*
X32466619Y-40100238D01*
X32466619Y-40385952D02*
X31466619Y-40385952D01*
X31466619Y-40385952D02*
X31609476Y-40290714D01*
X31609476Y-40290714D02*
X31704714Y-40195476D01*
X31704714Y-40195476D02*
X31752333Y-40100238D01*
%TO.C,J5*%
X37163333Y-148941619D02*
X37163333Y-149655904D01*
X37163333Y-149655904D02*
X37210952Y-149798761D01*
X37210952Y-149798761D02*
X37306190Y-149894000D01*
X37306190Y-149894000D02*
X37449047Y-149941619D01*
X37449047Y-149941619D02*
X37544285Y-149941619D01*
X36210952Y-148941619D02*
X36687142Y-148941619D01*
X36687142Y-148941619D02*
X36734761Y-149417809D01*
X36734761Y-149417809D02*
X36687142Y-149370190D01*
X36687142Y-149370190D02*
X36591904Y-149322571D01*
X36591904Y-149322571D02*
X36353809Y-149322571D01*
X36353809Y-149322571D02*
X36258571Y-149370190D01*
X36258571Y-149370190D02*
X36210952Y-149417809D01*
X36210952Y-149417809D02*
X36163333Y-149513047D01*
X36163333Y-149513047D02*
X36163333Y-149751142D01*
X36163333Y-149751142D02*
X36210952Y-149846380D01*
X36210952Y-149846380D02*
X36258571Y-149894000D01*
X36258571Y-149894000D02*
X36353809Y-149941619D01*
X36353809Y-149941619D02*
X36591904Y-149941619D01*
X36591904Y-149941619D02*
X36687142Y-149894000D01*
X36687142Y-149894000D02*
X36734761Y-149846380D01*
%TO.C,J13*%
X37639523Y-91791619D02*
X37639523Y-92505904D01*
X37639523Y-92505904D02*
X37687142Y-92648761D01*
X37687142Y-92648761D02*
X37782380Y-92744000D01*
X37782380Y-92744000D02*
X37925237Y-92791619D01*
X37925237Y-92791619D02*
X38020475Y-92791619D01*
X36639523Y-92791619D02*
X37210951Y-92791619D01*
X36925237Y-92791619D02*
X36925237Y-91791619D01*
X36925237Y-91791619D02*
X37020475Y-91934476D01*
X37020475Y-91934476D02*
X37115713Y-92029714D01*
X37115713Y-92029714D02*
X37210951Y-92077333D01*
X36306189Y-91791619D02*
X35687142Y-91791619D01*
X35687142Y-91791619D02*
X36020475Y-92172571D01*
X36020475Y-92172571D02*
X35877618Y-92172571D01*
X35877618Y-92172571D02*
X35782380Y-92220190D01*
X35782380Y-92220190D02*
X35734761Y-92267809D01*
X35734761Y-92267809D02*
X35687142Y-92363047D01*
X35687142Y-92363047D02*
X35687142Y-92601142D01*
X35687142Y-92601142D02*
X35734761Y-92696380D01*
X35734761Y-92696380D02*
X35782380Y-92744000D01*
X35782380Y-92744000D02*
X35877618Y-92791619D01*
X35877618Y-92791619D02*
X36163332Y-92791619D01*
X36163332Y-92791619D02*
X36258570Y-92744000D01*
X36258570Y-92744000D02*
X36306189Y-92696380D01*
%TO.C,J7*%
X62563333Y-167991619D02*
X62563333Y-168705904D01*
X62563333Y-168705904D02*
X62610952Y-168848761D01*
X62610952Y-168848761D02*
X62706190Y-168944000D01*
X62706190Y-168944000D02*
X62849047Y-168991619D01*
X62849047Y-168991619D02*
X62944285Y-168991619D01*
X62182380Y-167991619D02*
X61515714Y-167991619D01*
X61515714Y-167991619D02*
X61944285Y-168991619D01*
%TO.C,RV2*%
X67270238Y-84282619D02*
X67603571Y-83806428D01*
X67841666Y-84282619D02*
X67841666Y-83282619D01*
X67841666Y-83282619D02*
X67460714Y-83282619D01*
X67460714Y-83282619D02*
X67365476Y-83330238D01*
X67365476Y-83330238D02*
X67317857Y-83377857D01*
X67317857Y-83377857D02*
X67270238Y-83473095D01*
X67270238Y-83473095D02*
X67270238Y-83615952D01*
X67270238Y-83615952D02*
X67317857Y-83711190D01*
X67317857Y-83711190D02*
X67365476Y-83758809D01*
X67365476Y-83758809D02*
X67460714Y-83806428D01*
X67460714Y-83806428D02*
X67841666Y-83806428D01*
X66984523Y-83282619D02*
X66651190Y-84282619D01*
X66651190Y-84282619D02*
X66317857Y-83282619D01*
X66032142Y-83377857D02*
X65984523Y-83330238D01*
X65984523Y-83330238D02*
X65889285Y-83282619D01*
X65889285Y-83282619D02*
X65651190Y-83282619D01*
X65651190Y-83282619D02*
X65555952Y-83330238D01*
X65555952Y-83330238D02*
X65508333Y-83377857D01*
X65508333Y-83377857D02*
X65460714Y-83473095D01*
X65460714Y-83473095D02*
X65460714Y-83568333D01*
X65460714Y-83568333D02*
X65508333Y-83711190D01*
X65508333Y-83711190D02*
X66079761Y-84282619D01*
X66079761Y-84282619D02*
X65460714Y-84282619D01*
%TO.C,SW1*%
X45627000Y-68516667D02*
X45674619Y-68659524D01*
X45674619Y-68659524D02*
X45674619Y-68897619D01*
X45674619Y-68897619D02*
X45627000Y-68992857D01*
X45627000Y-68992857D02*
X45579380Y-69040476D01*
X45579380Y-69040476D02*
X45484142Y-69088095D01*
X45484142Y-69088095D02*
X45388904Y-69088095D01*
X45388904Y-69088095D02*
X45293666Y-69040476D01*
X45293666Y-69040476D02*
X45246047Y-68992857D01*
X45246047Y-68992857D02*
X45198428Y-68897619D01*
X45198428Y-68897619D02*
X45150809Y-68707143D01*
X45150809Y-68707143D02*
X45103190Y-68611905D01*
X45103190Y-68611905D02*
X45055571Y-68564286D01*
X45055571Y-68564286D02*
X44960333Y-68516667D01*
X44960333Y-68516667D02*
X44865095Y-68516667D01*
X44865095Y-68516667D02*
X44769857Y-68564286D01*
X44769857Y-68564286D02*
X44722238Y-68611905D01*
X44722238Y-68611905D02*
X44674619Y-68707143D01*
X44674619Y-68707143D02*
X44674619Y-68945238D01*
X44674619Y-68945238D02*
X44722238Y-69088095D01*
X44674619Y-69421429D02*
X45674619Y-69659524D01*
X45674619Y-69659524D02*
X44960333Y-69850000D01*
X44960333Y-69850000D02*
X45674619Y-70040476D01*
X45674619Y-70040476D02*
X44674619Y-70278572D01*
X45674619Y-71183333D02*
X45674619Y-70611905D01*
X45674619Y-70897619D02*
X44674619Y-70897619D01*
X44674619Y-70897619D02*
X44817476Y-70802381D01*
X44817476Y-70802381D02*
X44912714Y-70707143D01*
X44912714Y-70707143D02*
X44960333Y-70611905D01*
%TO.C,J14*%
X37639523Y-129891619D02*
X37639523Y-130605904D01*
X37639523Y-130605904D02*
X37687142Y-130748761D01*
X37687142Y-130748761D02*
X37782380Y-130844000D01*
X37782380Y-130844000D02*
X37925237Y-130891619D01*
X37925237Y-130891619D02*
X38020475Y-130891619D01*
X36639523Y-130891619D02*
X37210951Y-130891619D01*
X36925237Y-130891619D02*
X36925237Y-129891619D01*
X36925237Y-129891619D02*
X37020475Y-130034476D01*
X37020475Y-130034476D02*
X37115713Y-130129714D01*
X37115713Y-130129714D02*
X37210951Y-130177333D01*
X35782380Y-130224952D02*
X35782380Y-130891619D01*
X36020475Y-129844000D02*
X36258570Y-130558285D01*
X36258570Y-130558285D02*
X35639523Y-130558285D01*
%TO.C,J8*%
X62563333Y-139543619D02*
X62563333Y-140257904D01*
X62563333Y-140257904D02*
X62610952Y-140400761D01*
X62610952Y-140400761D02*
X62706190Y-140496000D01*
X62706190Y-140496000D02*
X62849047Y-140543619D01*
X62849047Y-140543619D02*
X62944285Y-140543619D01*
X61944285Y-139972190D02*
X62039523Y-139924571D01*
X62039523Y-139924571D02*
X62087142Y-139876952D01*
X62087142Y-139876952D02*
X62134761Y-139781714D01*
X62134761Y-139781714D02*
X62134761Y-139734095D01*
X62134761Y-139734095D02*
X62087142Y-139638857D01*
X62087142Y-139638857D02*
X62039523Y-139591238D01*
X62039523Y-139591238D02*
X61944285Y-139543619D01*
X61944285Y-139543619D02*
X61753809Y-139543619D01*
X61753809Y-139543619D02*
X61658571Y-139591238D01*
X61658571Y-139591238D02*
X61610952Y-139638857D01*
X61610952Y-139638857D02*
X61563333Y-139734095D01*
X61563333Y-139734095D02*
X61563333Y-139781714D01*
X61563333Y-139781714D02*
X61610952Y-139876952D01*
X61610952Y-139876952D02*
X61658571Y-139924571D01*
X61658571Y-139924571D02*
X61753809Y-139972190D01*
X61753809Y-139972190D02*
X61944285Y-139972190D01*
X61944285Y-139972190D02*
X62039523Y-140019809D01*
X62039523Y-140019809D02*
X62087142Y-140067428D01*
X62087142Y-140067428D02*
X62134761Y-140162666D01*
X62134761Y-140162666D02*
X62134761Y-140353142D01*
X62134761Y-140353142D02*
X62087142Y-140448380D01*
X62087142Y-140448380D02*
X62039523Y-140496000D01*
X62039523Y-140496000D02*
X61944285Y-140543619D01*
X61944285Y-140543619D02*
X61753809Y-140543619D01*
X61753809Y-140543619D02*
X61658571Y-140496000D01*
X61658571Y-140496000D02*
X61610952Y-140448380D01*
X61610952Y-140448380D02*
X61563333Y-140353142D01*
X61563333Y-140353142D02*
X61563333Y-140162666D01*
X61563333Y-140162666D02*
X61610952Y-140067428D01*
X61610952Y-140067428D02*
X61658571Y-140019809D01*
X61658571Y-140019809D02*
X61753809Y-139972190D01*
%TO.C,RV1*%
X67270238Y-65232619D02*
X67603571Y-64756428D01*
X67841666Y-65232619D02*
X67841666Y-64232619D01*
X67841666Y-64232619D02*
X67460714Y-64232619D01*
X67460714Y-64232619D02*
X67365476Y-64280238D01*
X67365476Y-64280238D02*
X67317857Y-64327857D01*
X67317857Y-64327857D02*
X67270238Y-64423095D01*
X67270238Y-64423095D02*
X67270238Y-64565952D01*
X67270238Y-64565952D02*
X67317857Y-64661190D01*
X67317857Y-64661190D02*
X67365476Y-64708809D01*
X67365476Y-64708809D02*
X67460714Y-64756428D01*
X67460714Y-64756428D02*
X67841666Y-64756428D01*
X66984523Y-64232619D02*
X66651190Y-65232619D01*
X66651190Y-65232619D02*
X66317857Y-64232619D01*
X65460714Y-65232619D02*
X66032142Y-65232619D01*
X65746428Y-65232619D02*
X65746428Y-64232619D01*
X65746428Y-64232619D02*
X65841666Y-64375476D01*
X65841666Y-64375476D02*
X65936904Y-64470714D01*
X65936904Y-64470714D02*
X66032142Y-64518333D01*
%TO.C,RV3*%
X67270238Y-160482619D02*
X67603571Y-160006428D01*
X67841666Y-160482619D02*
X67841666Y-159482619D01*
X67841666Y-159482619D02*
X67460714Y-159482619D01*
X67460714Y-159482619D02*
X67365476Y-159530238D01*
X67365476Y-159530238D02*
X67317857Y-159577857D01*
X67317857Y-159577857D02*
X67270238Y-159673095D01*
X67270238Y-159673095D02*
X67270238Y-159815952D01*
X67270238Y-159815952D02*
X67317857Y-159911190D01*
X67317857Y-159911190D02*
X67365476Y-159958809D01*
X67365476Y-159958809D02*
X67460714Y-160006428D01*
X67460714Y-160006428D02*
X67841666Y-160006428D01*
X66984523Y-159482619D02*
X66651190Y-160482619D01*
X66651190Y-160482619D02*
X66317857Y-159482619D01*
X66079761Y-159482619D02*
X65460714Y-159482619D01*
X65460714Y-159482619D02*
X65794047Y-159863571D01*
X65794047Y-159863571D02*
X65651190Y-159863571D01*
X65651190Y-159863571D02*
X65555952Y-159911190D01*
X65555952Y-159911190D02*
X65508333Y-159958809D01*
X65508333Y-159958809D02*
X65460714Y-160054047D01*
X65460714Y-160054047D02*
X65460714Y-160292142D01*
X65460714Y-160292142D02*
X65508333Y-160387380D01*
X65508333Y-160387380D02*
X65555952Y-160435000D01*
X65555952Y-160435000D02*
X65651190Y-160482619D01*
X65651190Y-160482619D02*
X65936904Y-160482619D01*
X65936904Y-160482619D02*
X66032142Y-160435000D01*
X66032142Y-160435000D02*
X66079761Y-160387380D01*
%TO.C,J2*%
X37163333Y-72741619D02*
X37163333Y-73455904D01*
X37163333Y-73455904D02*
X37210952Y-73598761D01*
X37210952Y-73598761D02*
X37306190Y-73694000D01*
X37306190Y-73694000D02*
X37449047Y-73741619D01*
X37449047Y-73741619D02*
X37544285Y-73741619D01*
X36734761Y-72836857D02*
X36687142Y-72789238D01*
X36687142Y-72789238D02*
X36591904Y-72741619D01*
X36591904Y-72741619D02*
X36353809Y-72741619D01*
X36353809Y-72741619D02*
X36258571Y-72789238D01*
X36258571Y-72789238D02*
X36210952Y-72836857D01*
X36210952Y-72836857D02*
X36163333Y-72932095D01*
X36163333Y-72932095D02*
X36163333Y-73027333D01*
X36163333Y-73027333D02*
X36210952Y-73170190D01*
X36210952Y-73170190D02*
X36782380Y-73741619D01*
X36782380Y-73741619D02*
X36163333Y-73741619D01*
D11*
%TO.C,J6*%
X36830000Y-169291000D02*
X33782000Y-169291000D01*
X32766000Y-170307000D02*
X32766000Y-173355000D01*
X32766000Y-173355000D02*
G75*
G03*
X36830000Y-169291000I4064000J0D01*
G01*
X33782000Y-169291000D02*
G75*
G03*
X32766000Y-170307000I0J-1016000D01*
G01*
%TO.C,J12*%
X80705000Y-145475000D02*
X78045000Y-145475000D01*
X80705000Y-132715000D02*
X80705000Y-145475000D01*
X80705000Y-132715000D02*
X78045000Y-132715000D01*
X80705000Y-131445000D02*
X80705000Y-130115000D01*
X80705000Y-130115000D02*
X79375000Y-130115000D01*
X78045000Y-132715000D02*
X78045000Y-145475000D01*
%TO.C,J18*%
X80705000Y-104835000D02*
X78045000Y-104835000D01*
X80705000Y-92075000D02*
X80705000Y-104835000D01*
X80705000Y-92075000D02*
X78045000Y-92075000D01*
X80705000Y-90805000D02*
X80705000Y-89475000D01*
X80705000Y-89475000D02*
X79375000Y-89475000D01*
X78045000Y-92075000D02*
X78045000Y-104835000D01*
%TO.C,RV6*%
X57350000Y-109585000D02*
X57350000Y-114305000D01*
X57360000Y-118115000D02*
X57360000Y-121175000D01*
X58540000Y-109585000D02*
X57360000Y-109585000D01*
X61440000Y-109585000D02*
X60910000Y-109585000D01*
X61730000Y-116205000D02*
X62730000Y-116205000D01*
X62230000Y-116705000D02*
X62230000Y-115705000D01*
X63890000Y-109585000D02*
X63060000Y-109585000D01*
X67100000Y-109585000D02*
X65610000Y-109585000D01*
X67100000Y-109585000D02*
X67100000Y-114305000D01*
X67100000Y-118115000D02*
X67100000Y-121175000D01*
X67100000Y-121175000D02*
X57360000Y-121175000D01*
%TO.C,J16*%
X62230000Y-101219000D02*
X65278000Y-101219000D01*
X66294000Y-100203000D02*
X66294000Y-97155000D01*
X66294000Y-97155000D02*
G75*
G03*
X62230000Y-101219000I-4064000J0D01*
G01*
X65278000Y-101219000D02*
G75*
G03*
X66294000Y-100203000I0J1016000D01*
G01*
%TO.C,J3*%
X32766000Y-59055000D02*
X32766000Y-62103000D01*
X33782000Y-63119000D02*
X36830000Y-63119000D01*
X36830000Y-63119000D02*
G75*
G03*
X32766000Y-59055000I0J4064000D01*
G01*
X32766000Y-62103000D02*
G75*
G03*
X33782000Y-63119000I1016000J0D01*
G01*
%TO.C,SW2*%
X53086000Y-120523000D02*
X45974000Y-120523000D01*
X45974000Y-120523000D02*
X45974000Y-133477000D01*
X53086000Y-133477000D02*
X53086000Y-120523000D01*
X45974000Y-133477000D02*
X53086000Y-133477000D01*
%TO.C,SW3*%
X53086000Y-82423000D02*
X45974000Y-82423000D01*
X45974000Y-82423000D02*
X45974000Y-95377000D01*
X53086000Y-95377000D02*
X53086000Y-82423000D01*
X45974000Y-95377000D02*
X53086000Y-95377000D01*
%TO.C,J4*%
X62230000Y-44069000D02*
X65278000Y-44069000D01*
X66294000Y-43053000D02*
X66294000Y-40005000D01*
X66294000Y-40005000D02*
G75*
G03*
X62230000Y-44069000I-4064000J0D01*
G01*
X65278000Y-44069000D02*
G75*
G03*
X66294000Y-43053000I0J1016000D01*
G01*
%TO.C,J15*%
X36830000Y-112141000D02*
X33782000Y-112141000D01*
X32766000Y-113157000D02*
X32766000Y-116205000D01*
X32766000Y-116205000D02*
G75*
G03*
X36830000Y-112141000I4064000J0D01*
G01*
X33782000Y-112141000D02*
G75*
G03*
X32766000Y-113157000I0J-1016000D01*
G01*
%TO.C,J1*%
X32766000Y-40005000D02*
X32766000Y-43053000D01*
X33782000Y-44069000D02*
X36830000Y-44069000D01*
X36830000Y-44069000D02*
G75*
G03*
X32766000Y-40005000I0J4064000D01*
G01*
X32766000Y-43053000D02*
G75*
G03*
X33782000Y-44069000I1016000J0D01*
G01*
%TO.C,J5*%
X36830000Y-150241000D02*
X33782000Y-150241000D01*
X32766000Y-151257000D02*
X32766000Y-154305000D01*
X32766000Y-154305000D02*
G75*
G03*
X36830000Y-150241000I4064000J0D01*
G01*
X33782000Y-150241000D02*
G75*
G03*
X32766000Y-151257000I0J-1016000D01*
G01*
%TO.C,J13*%
X36830000Y-93091000D02*
X33782000Y-93091000D01*
X32766000Y-94107000D02*
X32766000Y-97155000D01*
X32766000Y-97155000D02*
G75*
G03*
X36830000Y-93091000I4064000J0D01*
G01*
X33782000Y-93091000D02*
G75*
G03*
X32766000Y-94107000I0J-1016000D01*
G01*
%TO.C,J7*%
X62230000Y-169291000D02*
X59182000Y-169291000D01*
X58166000Y-170307000D02*
X58166000Y-173355000D01*
X58166000Y-173355000D02*
G75*
G03*
X62230000Y-169291000I4064000J0D01*
G01*
X59182000Y-169291000D02*
G75*
G03*
X58166000Y-170307000I0J-1016000D01*
G01*
%TO.C,RV2*%
X57350000Y-71485000D02*
X57350000Y-76205000D01*
X57360000Y-80015000D02*
X57360000Y-83075000D01*
X58540000Y-71485000D02*
X57360000Y-71485000D01*
X61440000Y-71485000D02*
X60910000Y-71485000D01*
X61730000Y-78105000D02*
X62730000Y-78105000D01*
X62230000Y-78605000D02*
X62230000Y-77605000D01*
X63890000Y-71485000D02*
X63060000Y-71485000D01*
X67100000Y-71485000D02*
X65610000Y-71485000D01*
X67100000Y-71485000D02*
X67100000Y-76205000D01*
X67100000Y-80015000D02*
X67100000Y-83075000D01*
X67100000Y-83075000D02*
X57360000Y-83075000D01*
%TO.C,SW1*%
X53086000Y-63373000D02*
X45974000Y-63373000D01*
X45974000Y-63373000D02*
X45974000Y-76327000D01*
X53086000Y-76327000D02*
X53086000Y-63373000D01*
X45974000Y-76327000D02*
X53086000Y-76327000D01*
%TO.C,J14*%
X36830000Y-131191000D02*
X33782000Y-131191000D01*
X32766000Y-132207000D02*
X32766000Y-135255000D01*
X32766000Y-135255000D02*
G75*
G03*
X36830000Y-131191000I4064000J0D01*
G01*
X33782000Y-131191000D02*
G75*
G03*
X32766000Y-132207000I0J-1016000D01*
G01*
%TO.C,J8*%
X62230000Y-139319000D02*
X65278000Y-139319000D01*
X66294000Y-138303000D02*
X66294000Y-135255000D01*
X66294000Y-135255000D02*
G75*
G03*
X62230000Y-139319000I-4064000J0D01*
G01*
X65278000Y-139319000D02*
G75*
G03*
X66294000Y-138303000I0J1016000D01*
G01*
%TO.C,RV1*%
X57350000Y-52435000D02*
X57350000Y-57155000D01*
X57360000Y-60965000D02*
X57360000Y-64025000D01*
X58540000Y-52435000D02*
X57360000Y-52435000D01*
X61440000Y-52435000D02*
X60910000Y-52435000D01*
X61730000Y-59055000D02*
X62730000Y-59055000D01*
X62230000Y-59555000D02*
X62230000Y-58555000D01*
X63890000Y-52435000D02*
X63060000Y-52435000D01*
X67100000Y-52435000D02*
X65610000Y-52435000D01*
X67100000Y-52435000D02*
X67100000Y-57155000D01*
X67100000Y-60965000D02*
X67100000Y-64025000D01*
X67100000Y-64025000D02*
X57360000Y-64025000D01*
%TO.C,RV3*%
X57350000Y-147685000D02*
X57350000Y-152405000D01*
X57360000Y-156215000D02*
X57360000Y-159275000D01*
X58540000Y-147685000D02*
X57360000Y-147685000D01*
X61440000Y-147685000D02*
X60910000Y-147685000D01*
X61730000Y-154305000D02*
X62730000Y-154305000D01*
X62230000Y-154805000D02*
X62230000Y-153805000D01*
X63890000Y-147685000D02*
X63060000Y-147685000D01*
X67100000Y-147685000D02*
X65610000Y-147685000D01*
X67100000Y-147685000D02*
X67100000Y-152405000D01*
X67100000Y-156215000D02*
X67100000Y-159275000D01*
X67100000Y-159275000D02*
X57360000Y-159275000D01*
%TO.C,J2*%
X36830000Y-74041000D02*
X33782000Y-74041000D01*
X32766000Y-75057000D02*
X32766000Y-78105000D01*
X32766000Y-78105000D02*
G75*
G03*
X36830000Y-74041000I4064000J0D01*
G01*
X33782000Y-74041000D02*
G75*
G03*
X32766000Y-75057000I0J-1016000D01*
G01*
%TD*%
M02*
