M48
; DRILL file {KiCad 7.0.2-0} date 2023 October 09, Monday 21:37:40
; FORMAT={-:-/ absolute / inch / decimal}
; #@! TF.CreationDate,2023-10-09T21:37:40+01:00
; #@! TF.GenerationSoftware,Kicad,Pcbnew,7.0.2-0
; #@! TF.FileFunction,NonPlated,1,2,NPTH
FMAT,2
INCH
; #@! TA.AperFunction,NonPlated,NPTH,ComponentDrill
T1C0.0197
%
G90
G05
T1
X2.9067Y-1.9185
X2.9067Y-1.95
X2.9067Y-1.9815
X2.9067Y-2.6685
X2.9067Y-2.7
X2.9067Y-2.7315
X2.9067Y-3.4185
X2.9067Y-3.45
X2.9067Y-3.4815
X2.9067Y-4.1685
X2.9067Y-4.2
X2.9067Y-4.2315
X2.9067Y-4.9185
X2.9067Y-4.95
X2.9067Y-4.9815
X2.9067Y-5.6685
X2.9067Y-5.7
X2.9067Y-5.7315
X2.9067Y-6.4185
X2.9067Y-6.45
X2.9067Y-6.4815
X2.9933Y-1.9185
X2.9933Y-1.95
X2.9933Y-1.9815
X2.9933Y-2.6685
X2.9933Y-2.7
X2.9933Y-2.7315
X2.9933Y-3.4185
X2.9933Y-3.45
X2.9933Y-3.4815
X2.9933Y-4.1685
X2.9933Y-4.2
X2.9933Y-4.2315
X2.9933Y-4.9185
X2.9933Y-4.95
X2.9933Y-4.9815
X2.9933Y-5.6685
X2.9933Y-5.7
X2.9933Y-5.7315
X2.9933Y-6.4185
X2.9933Y-6.45
X2.9933Y-6.4815
T0
M30
